<!-- Generated by IcoMoon.io -->
<svg version="1.1" xmlns="http://www.w3.org/2000/svg" width="1024" height="1024" viewBox="0 0 1024 1024">
<title></title>
<g id="icomoon-ignore">
</g>
<path fill="#000" d="M480.591 415.214c-139.756-38.513-336.804-36.714-438.171-19.633-12.241 2.063-14.162 58.331-3.276 60.299 20.035 8.102 28.583 28.322 28.583 28.322s5.982 17.941 23.356 90.905c17.373 72.964 58.791 81.713 58.791 81.713s50.693 12.544 109.171 12.544c58.478 0 93.459-2.659 130.91-21.391s53.819-70.904 53.819-70.904c0 0 18.869-44.955 31.86-87.374 4.074-13.302 66.066-13.302 70.14 0 12.991 42.418 31.86 87.374 31.86 87.374s16.369 52.171 53.819 70.904c37.451 18.733 72.432 21.391 130.91 21.391s109.171-12.544 109.171-12.544c0 0 41.418-8.749 58.791-81.713s23.356-90.905 23.356-90.905c0 0 8.548-20.219 28.583-28.322 10.886-1.969 8.965-58.237-3.276-60.299-101.367-17.081-298.416-18.88-438.171 19.633-9.484 2.172-50.741 2.172-60.225 0z"></path>
</svg>
